o volvo
v 26.336506 -27.335024 23.956362
v 27.248018 -22.353529 23.725481
v -26.336494 -27.334867 23.956575
v -27.247980 -22.353365 23.725695
v -26.848276 -22.580770 25.285891
v -27.179989 7.357676 24.030184
v -25.911966 7.444393 29.665178
v -23.774338 7.228755 37.675468
v -25.449732 -16.476994 31.689409
v -24.055397 -11.552113 36.294716
v -23.820786 -8.089356 37.117317
v -26.154959 9.928022 30.030283
v -23.724627 9.943682 37.859177
v -23.703165 31.587084 36.831345
v -24.167467 33.541893 35.016548
v -25.723583 35.486210 29.575663
v -27.670790 40.234333 24.730585
v -27.545353 53.051033 24.600321
v -25.914642 48.361607 30.331797
v -24.068136 43.311489 35.622375
v -23.531340 41.010082 36.630768
v -23.754553 36.293484 36.805252
v -26.040071 38.180206 30.692469
v -27.330982 10.147533 24.103289
v -26.912100 37.069828 24.526667
v -22.659998 -13.142721 37.692101
v -20.864590 -12.330529 38.695595
v -24.370033 -18.144201 32.674591
v -25.994474 -24.086077 26.622187
v -25.225002 -28.926968 23.263567
v -21.249506 -30.569681 23.499346
v -14.794609 -31.819803 23.579615
v -0.000010 -32.375549 23.987154
v -16.589891 -12.843444 39.096977
v 14.794590 -31.819891 23.579493
v 21.249495 -30.569807 23.499178
v 25.224998 -28.927120 23.263361
v 25.994524 -24.086233 26.621981
v 24.370167 -18.144346 32.674400
v 0.000108 -13.612994 39.345802
v 16.590109 -12.843543 39.096848
v 20.864811 -12.330655 38.695427
v 22.660204 -13.142857 37.691925
v -24.855927 61.270527 24.508738
v -15.488523 61.557392 25.344095
v 0.000274 61.610847 25.732737
v 15.488977 61.557301 25.343973
v 24.856472 61.270374 24.508539
v 26.030272 60.037773 24.881632
v 24.320377 52.881954 31.725512
v 22.815681 47.247543 37.495697
v 20.968987 46.098347 38.815903
v 15.155286 45.831657 39.247528
v 0.000282 46.160202 39.144791
v -15.154714 45.831749 39.247650
v -20.968414 46.098469 38.816071
v -22.815117 47.247681 37.495880
v -24.319824 52.882099 31.725702
v -26.029730 60.037926 24.881838
v 27.180210 7.357521 24.029963
v 27.331219 10.147369 24.103067
v 26.912500 37.069668 24.526453
v 27.671209 40.234165 24.730364
v 27.545849 53.050865 24.600100
v 25.915157 48.361454 30.331591
v 24.068663 43.311344 35.622185
v 23.531862 41.009937 36.630585
v 23.703634 31.586943 36.831154
v 23.724974 9.943529 37.858986
v 23.774662 7.228612 37.675278
v 25.912233 7.444238 29.664972
v 26.155241 9.927866 30.030077
v 23.821014 -8.089499 37.117126
v 24.055603 -11.552258 36.294525
v 26.848326 -22.580931 25.285677
v 25.449869 -16.477146 31.689203
v 24.167933 33.541748 35.016350
v 25.724018 35.486057 29.575457
v 26.040529 38.180054 30.692263
v 23.755049 36.293339 36.805069
v 20.864811 -12.330655 38.695427
v 22.660204 -13.142857 37.691925
v 16.590109 -12.843543 39.096848
v -27.247980 -22.353365 23.725695
v -25.911966 7.444393 29.665178
v -27.179989 7.357676 24.030184
v -13.655046 -21.906031 32.017136
v -20.922138 -19.982309 32.268074
v 0.000054 -22.076971 32.393486
v 13.655153 -21.906111 32.017029
v 20.922260 -19.982435 32.267906
v -16.378450 92.671318 19.707895
v -16.378460 92.845619 17.606592
v -25.390160 91.975952 17.709429
v -25.390154 91.801643 19.810724
v 23.918848 92.477997 19.707735
v 23.918840 92.652306 17.606432
v 15.100440 92.845528 17.709269
v 15.100449 92.671227 19.810564
v 29.956831 -37.310108 13.178221
v 29.956854 -31.575008 14.362238
v 29.956837 -37.310112 14.362219
v 29.956848 -31.575005 13.178240
v -29.956951 -31.559324 13.178476
v -29.956963 -37.294529 14.362459
v -29.956945 -31.559328 14.362474
v -29.956968 -37.294525 13.178461
v 26.155241 9.927866 30.030077
v 26.912500 37.069668 24.526453
v 27.331219 10.147369 24.103067
v 23.724974 9.943529 37.858986
v 24.167933 33.541748 35.016350
v 25.724018 35.486057 29.575457
v -26.154959 9.928022 30.030283
v -26.912100 37.069828 24.526667
v -27.330982 10.147533 24.103289
v -23.724627 9.943682 37.859177
v -24.167467 33.541893 35.016548
v -25.723583 35.486210 29.575663
v -20.922138 -19.982309 32.268074
v -16.589891 -12.843444 39.096977
v -13.655046 -21.906031 32.017136
v 14.794590 -31.819891 23.579493
v -0.000010 -32.375549 23.987154
v 0.000054 -22.076971 32.393486
v 20.922260 -19.982435 32.267906
v 21.249495 -30.569807 23.499178
v 13.655153 -21.906111 32.017029
v 23.531862 41.009937 36.630585
v 24.068663 43.311344 35.622185
v 23.755049 36.293339 36.805069
v 26.040529 38.180054 30.692263
v 25.915157 48.361454 30.331591
v 27.671209 40.234165 24.730364
v -23.531340 41.010082 36.630768
v -24.068136 43.311489 35.622375
v -23.754553 36.293484 36.805252
v -26.040071 38.180206 30.692469
v -25.914642 48.361607 30.331797
v -27.670790 40.234333 24.730585
v 16.071482 53.745178 32.014847
v 0.000277 53.816326 32.456413
v -16.070917 53.745277 32.014977
v -22.815117 47.247681 37.495880
v -16.070917 53.745277 32.014977
v -24.319824 52.882099 31.725702
v -15.488523 61.557392 25.344095
v 0.000277 53.816326 32.456413
v 0.000274 61.610847 25.732737
v 24.856472 61.270374 24.508539
v 15.488977 61.557301 25.343973
v 16.071482 53.745178 32.014847
v 27.248018 -22.353529 23.725481
v 27.180210 7.357521 24.029963
v 25.912233 7.444238 29.664972
vn 0.1469 -0.8964 0.4182
vn 0.1188 -0.9025 0.4139
vn 0.1824 -0.8988 0.3985
vn 0.9644 0.1178 -0.2369
vn 0.9685 0.1095 -0.2237
vn 0.9662 0.1180 -0.2291
vn 0.9606 0.1182 -0.2515
vn 0.9684 0.1064 -0.2254
vn 0.9730 0.1034 -0.2063
vn 0.9724 0.1043 -0.2089
vn 0.9756 0.0956 -0.1976
vn -0.1469 0.8964 -0.4182
vn -0.1825 0.8988 -0.3985
vn -0.1187 0.9025 -0.4139
vn -0.9724 -0.1043 0.2089
vn -0.9685 -0.1095 0.2237
vn -0.9756 -0.0956 0.1976
vn -0.9730 -0.1034 0.2062
vn -0.9684 -0.1064 0.2254
vn -0.9606 -0.1182 0.2515
vn -0.9644 -0.1178 0.2369
vn -0.9662 -0.1180 0.2291
vn -0.1469 -0.8964 0.4182
vn -0.1826 -0.8988 0.3985
vn -0.1187 -0.9025 0.4140
vn -0.0875 -0.9081 0.4096
vn -0.0000 -0.9056 0.4242
vn -0.2410 -0.8862 0.3958
vn -0.2597 -0.8946 0.3637
vn -0.3140 -0.8672 0.3865
vn -0.3484 -0.8420 0.4119
vn -0.3045 -0.8640 0.4009
vn -0.1860 -0.8970 0.4010
vn -0.0715 -0.9117 0.4045
vn -0.0000 -0.9123 0.4095
vn -0.0000 -0.9107 0.4131
vn 0.0714 -0.9117 0.4046
vn 0.0875 -0.9081 0.4096
vn 0.1860 -0.8970 0.4009
vn 0.2409 -0.8862 0.3958
vn 0.1860 -0.8970 0.4010
vn 0.3045 -0.8640 0.4009
vn 0.3483 -0.8420 0.4119
vn 0.3140 -0.8672 0.3865
vn 0.2598 -0.8946 0.3637
vn 0.1824 -0.8988 0.3986
vn 0.1187 -0.9025 0.4139
vn 0.5773 0.2676 0.7714
vn 0.5776 0.7713 -0.2673
vn -0.5775 0.7713 -0.2674
vn -0.5773 0.2676 0.7714
vn -0.5776 0.7713 -0.2674
vn -0.5773 0.2676 0.7715
vn 0.5773 -0.2672 -0.7715
vn 0.5774 0.2672 0.7715
vn 0.5773 -0.7715 0.2672
vn 0.5774 0.7715 -0.2672
vn -0.5773 0.7716 -0.2671
vn -0.5774 -0.7716 0.2671
vn -0.5773 0.2671 0.7716
vn -0.5774 -0.2671 -0.7716
vn 0.9700 0.0893 -0.2261
vn 0.9807 0.0741 -0.1808
vn 0.9764 0.0789 -0.2008
vn 0.9625 0.1005 -0.2519
vn 0.9601 0.1065 -0.2587
vn 0.9625 0.1006 -0.2520
vn 0.9626 0.1048 -0.2500
vn 0.9652 0.1018 -0.2410
vn 0.9534 0.1139 -0.2794
vn 0.9608 0.1054 -0.2565
vn 0.9591 0.1122 -0.2599
vn 0.9454 0.1227 -0.3019
vn 0.9029 0.1561 -0.4005
vn 0.9453 0.1228 -0.3022
vn 0.9533 0.1140 -0.2796
vn 0.8833 0.1684 -0.4374
vn 0.8180 0.1957 -0.5409
vn 0.9700 -0.0893 0.2261
vn 0.9807 -0.0742 0.1808
vn 0.9764 -0.0789 0.2008
vn 0.9625 -0.1005 0.2519
vn 0.9601 -0.1065 0.2587
vn 0.9625 -0.1006 0.2520
vn 0.9626 -0.1048 0.2500
vn 0.9652 -0.1018 0.2410
vn -0.9700 0.0893 -0.2261
vn -0.9764 0.0789 -0.2008
vn -0.9807 0.0741 -0.1808
vn -0.9625 0.1005 -0.2519
vn -0.9601 0.1065 -0.2587
vn -0.9626 0.1048 -0.2500
vn -0.9625 0.1006 -0.2520
vn -0.9652 0.1018 -0.2409
vn -0.9700 -0.0893 0.2261
vn -0.9764 -0.0789 0.2008
vn -0.9807 -0.0742 0.1808
vn -0.9625 -0.1005 0.2519
vn -0.9601 -0.1065 0.2587
vn -0.9626 -0.1048 0.2500
vn -0.9625 -0.1006 0.2520
vn -0.9652 -0.1017 0.2410
vn 0.8180 -0.1957 0.5409
vn 0.8834 -0.1684 0.4374
vn 0.9028 -0.1561 0.4006
vn 0.9453 -0.1227 0.3021
vn 0.9533 -0.1140 0.2796
vn 0.9454 -0.1227 0.3019
vn 0.9608 -0.1053 0.2564
vn 0.9534 -0.1139 0.2794
vn 0.9591 -0.1122 0.2599
vn 0.2409 0.8862 -0.3958
vn 0.1187 0.9025 -0.4139
vn 0.0875 0.9081 -0.4096
vn -0.0000 0.9056 -0.4242
vn 0.3484 0.8420 -0.4119
vn 0.3045 0.8641 -0.4009
vn 0.3140 0.8672 -0.3865
vn 0.2597 0.8946 -0.3637
vn 0.1824 0.8988 -0.3986
vn 0.1469 0.8964 -0.4182
vn -0.0715 0.9117 -0.4046
vn -0.0000 0.9107 -0.4131
vn -0.0000 0.9123 -0.4095
vn -0.0875 0.9081 -0.4095
vn -0.1860 0.8970 -0.4009
vn -0.2409 0.8862 -0.3958
vn -0.1858 0.8970 -0.4010
vn -0.3045 0.8641 -0.4009
vn -0.3484 0.8420 -0.4119
vn -0.3140 0.8672 -0.3865
vn -0.2597 0.8946 -0.3637
vn -0.1824 0.8988 -0.3986
vn -0.1188 0.9025 -0.4139
vn 0.0715 0.9117 -0.4046
vn 0.1860 0.8970 -0.4010
vn -0.8180 0.1957 -0.5409
vn -0.9029 0.1561 -0.4005
vn -0.8834 0.1684 -0.4374
vn -0.9453 0.1228 -0.3022
vn -0.9533 0.1140 -0.2796
vn -0.9454 0.1227 -0.3018
vn -0.9534 0.1139 -0.2794
vn -0.9608 0.1054 -0.2564
vn -0.9591 0.1122 -0.2599
vn -0.9724 0.1043 -0.2089
vn -0.9685 0.1095 -0.2237
vn -0.9756 0.0956 -0.1976
vn -0.9730 0.1034 -0.2062
vn -0.9684 0.1064 -0.2254
vn -0.9609 0.1179 -0.2504
vn -0.9644 0.1178 -0.2369
vn -0.9662 0.1180 -0.2291
vn -0.8180 -0.1957 0.5409
vn -0.9029 -0.1561 0.4005
vn -0.8834 -0.1684 0.4374
vn -0.9453 -0.1227 0.3021
vn -0.9533 -0.1140 0.2796
vn -0.9454 -0.1227 0.3019
vn -0.9534 -0.1139 0.2794
vn -0.9608 -0.1053 0.2564
vn -0.9591 -0.1122 0.2599
vn -0.0885 -0.2621 -0.9610
vn -0.1794 -0.1773 -0.9677
vn -0.1842 -0.1941 -0.9635
vn -0.0474 -0.2510 -0.9668
vn -0.0000 -0.2607 -0.9654
vn -0.0000 -0.2437 -0.9699
vn 0.0473 -0.2510 -0.9668
vn 0.0885 -0.2621 -0.9610
vn 0.0474 -0.2510 -0.9668
vn 0.1795 -0.1773 -0.9677
vn 0.1842 -0.1941 -0.9635
vn 0.0972 -0.3043 -0.9476
vn 0.0902 -0.3141 -0.9451
vn 0.0537 -0.2956 -0.9538
vn 0.0189 -0.2760 -0.9610
vn -0.0000 -0.2630 -0.9648
vn -0.0189 -0.2760 -0.9610
vn -0.0537 -0.2956 -0.9538
vn -0.0907 -0.3141 -0.9451
vn -0.0972 -0.3043 -0.9476
vn -0.0904 0.3141 0.9451
vn -0.0885 0.2621 0.9610
vn -0.0972 0.3042 0.9476
vn -0.1843 0.1941 0.9635
vn -0.1792 0.1773 0.9677
vn -0.0476 0.2510 0.9668
vn -0.0000 0.2607 0.9654
vn -0.0474 0.2510 0.9668
vn -0.0000 0.2437 0.9698
vn 0.0474 0.2510 0.9668
vn 0.0885 0.2621 0.9610
vn 0.1797 0.1773 0.9676
vn 0.1843 0.1941 0.9635
vn 0.0972 0.3042 0.9476
vn 0.0904 0.3141 0.9451
vn 0.0535 0.2957 0.9538
vn 0.0190 0.2760 0.9610
vn -0.0000 0.2630 0.9648
vn -0.0189 0.2760 0.9610
vn -0.0535 0.2957 0.9538
vn 0.9724 -0.1043 0.2089
vn 0.9756 -0.0956 0.1976
vn 0.9685 -0.1095 0.2237
vn 0.9730 -0.1034 0.2062
vn 0.9684 -0.1064 0.2254
vn 0.9606 -0.1182 0.2515
vn 0.9644 -0.1178 0.2369
vn 0.9662 -0.1180 0.2291
vt 0.994389 -0.995683
vt 0.996300 -0.905406
vt 0.953621 -0.995741
vt 0.448452 -0.332262
vt 0.001712 -0.560298
vt 0.003701 -0.331680
vt 0.448618 -0.445829
vt 0.448669 -0.544360
vt 0.448561 -0.646754
vt 0.448860 -0.761640
vt 0.003647 -0.763036
vt 0.992655 -0.330992
vt 0.956985 -0.330666
vt 0.994476 -0.408533
vt 0.842868 -0.603574
vt 0.995144 -0.653829
vt 0.841331 -0.458482
vt 0.812898 -0.330724
vt 0.718415 -0.330650
vt 0.666810 -0.331178
vt 0.665534 -0.350626
vt 0.665732 -0.462495
vt 0.663502 -0.541165
vt 0.839446 -0.654233
vt 0.666244 -0.599992
vt 0.666847 -0.656804
vt 0.837293 -0.706503
vt 0.664616 -0.771968
vt 0.835755 -0.856433
vt 0.663848 -0.892070
vt 0.665338 -0.994712
vt 0.733188 -0.994135
vt 0.838259 -0.994166
vt 0.960268 -0.994308
vt 0.995591 -0.902148
vt 0.017235 -0.165684
vt 0.017235 -0.308679
vt 0.821609 -0.308679
vt 0.821609 -0.165684
vt 0.017235 -0.006063
vt 0.017235 -0.164091
vt 0.838789 -0.164091
vt 0.838789 -0.006063
vt 0.007871 -0.156670
vt 0.819887 -0.005383
vt 0.007871 -0.005383
vt 0.819887 -0.156670
vt 0.449649 -0.553340
vt 0.448699 -0.761514
vt 0.005062 -0.762330
vt 0.003389 -0.588146
vt 0.448307 -0.331947
vt 0.002395 -0.385898
vt 0.003672 -0.332106
vt 0.003042 -0.539761
vt 0.449290 -0.761877
vt 0.003015 -0.762489
vt 0.448583 -0.535231
vt 0.002327 -0.410982
vt 0.448483 -0.332560
vt 0.003465 -0.331689
vt 0.828048 -0.824781
vt 0.665898 -0.993925
vt 0.703696 -0.994190
vt 0.665594 -0.845868
vt 0.833192 -0.655523
vt 0.666754 -0.657539
vt 0.665594 -0.485340
vt 0.828048 -0.486263
vt 0.663667 -0.331234
vt 0.758336 -0.330969
vt 0.832485 -0.329823
vt 0.907507 -0.332564
vt 0.994252 -0.331850
vt 0.993704 -0.416267
vt 0.994737 -0.654514
vt 0.994819 -0.897802
vt 0.995367 -0.993309
vt 0.962146 -0.994612
vt 0.832485 -0.994328
s 1
f 42/1/1 41/2/2 43/3/3
f 11/4/4 7/5/5 8/6/6
f 10/7/7 7/5/5 11/4/4
f 9/8/8 7/5/5 10/7/7
f 5/9/9 7/5/5 9/8/8
f 7/5/5 5/9/9 4/10/10
f 4/10/10 6/11/11 7/5/5
f 81/1/12 82/3/13 83/2/14
f 84/10/15 85/5/16 86/11/17
f 85/5/16 84/10/15 5/9/18
f 5/9/18 9/8/19 85/5/16
f 9/8/19 10/7/20 85/5/16
f 10/7/20 11/4/21 85/5/16
f 11/4/21 8/6/22 85/5/16
f 27/12/23 26/13/24 34/14/25
f 34/14/25 87/15/26 40/16/27
f 88/17/28 87/15/26 34/14/25
f 34/14/25 26/13/24 88/17/28
f 26/13/24 28/18/29 88/17/28
f 28/18/29 29/19/30 88/17/28
f 29/19/30 3/20/31 88/17/28
f 3/20/31 30/21/32 88/17/28
f 30/21/32 31/22/33 88/17/28
f 88/17/28 31/22/33 87/15/26
f 31/22/33 32/23/34 87/15/26
f 87/15/26 32/23/34 89/24/35
f 32/23/34 33/25/36 89/24/35
f 35/26/37 89/24/35 33/25/36
f 90/27/38 89/24/35 35/26/37
f 36/28/39 90/27/38 35/26/37
f 91/29/40 90/27/38 36/28/41
f 37/30/42 91/29/40 36/28/41
f 1/31/43 91/29/40 37/30/42
f 38/32/44 91/29/40 1/31/43
f 39/33/45 91/29/40 38/32/44
f 82/34/46 91/29/40 39/33/45
f 83/35/47 91/29/40 82/34/46
f 91/29/40 83/35/47 90/27/38
f 83/35/47 40/16/27 90/27/38
f 90/27/38 40/16/27 89/24/35
f 87/15/26 89/24/35 40/16/27
f 92/36/48 93/37/49 94/38/50
f 94/38/50 95/39/51 92/36/48
f 96/40/48 97/41/49 98/42/52
f 98/42/52 99/43/53 96/40/48
f 100/44/54 101/45/55 102/46/56
f 100/44/54 103/47/57 101/45/55
f 104/44/58 105/45/59 106/46/60
f 104/44/58 107/47/61 105/45/59
f 12/48/62 24/49/63 25/50/64
f 16/51/65 12/48/62 25/50/64
f 13/52/66 12/48/62 16/51/65
f 13/52/66 16/51/67 15/53/68
f 15/53/68 14/54/69 13/52/66
f 19/55/70 17/56/71 18/57/72
f 23/58/73 17/56/71 19/55/70
f 20/59/74 23/58/75 19/55/76
f 22/60/77 23/58/75 20/59/74
f 21/61/78 22/60/77 20/59/74
f 72/48/79 61/49/80 62/50/81
f 78/51/82 72/48/79 62/50/81
f 69/52/83 72/48/79 78/51/82
f 69/52/83 78/51/84 77/53/85
f 77/53/85 68/54/86 69/52/83
f 108/48/87 109/50/88 110/49/89
f 78/51/90 109/50/88 108/48/87
f 69/52/91 78/51/90 108/48/87
f 111/52/91 112/53/92 113/51/93
f 112/53/92 111/52/91 68/54/94
f 114/48/95 115/50/96 116/49/97
f 16/51/98 115/50/96 114/48/95
f 13/52/99 16/51/98 114/48/95
f 117/52/99 118/53/100 119/51/101
f 118/53/100 117/52/99 14/54/102
f 67/61/103 80/60/104 66/59/105
f 80/60/104 79/58/106 66/59/105
f 66/59/105 79/58/106 65/55/107
f 79/58/108 63/56/109 65/55/110
f 65/55/110 63/56/109 64/57/111
f 120/17/112 121/14/113 122/15/114
f 121/14/113 40/16/115 122/15/114
f 3/20/116 120/17/112 30/21/117
f 29/19/118 120/17/112 3/20/116
f 28/18/119 120/17/112 29/19/118
f 26/13/120 120/17/112 28/18/119
f 121/14/113 120/17/112 26/13/120
f 27/12/121 121/14/113 26/13/120
f 123/26/122 124/25/123 125/24/124
f 90/27/125 123/26/122 125/24/124
f 36/28/126 123/26/122 90/27/125
f 126/29/127 127/28/128 128/27/125
f 37/30/129 127/28/128 126/29/127
f 1/31/130 37/30/129 126/29/127
f 38/32/131 1/31/130 126/29/127
f 39/33/132 38/32/131 126/29/127
f 82/34/133 39/33/132 126/29/127
f 83/35/134 82/34/133 126/29/127
f 126/29/127 128/27/125 83/35/134
f 83/35/134 128/27/125 40/16/115
f 128/27/125 125/24/124 40/16/115
f 122/15/114 40/16/115 125/24/124
f 122/15/114 125/24/124 32/23/135
f 31/22/136 122/15/114 32/23/135
f 120/17/112 122/15/114 31/22/136
f 30/21/117 120/17/112 31/22/136
f 32/23/135 125/24/124 124/25/123
f 129/61/137 130/59/138 131/60/139
f 131/60/139 130/59/138 79/58/140
f 130/59/138 65/55/141 79/58/140
f 132/58/142 133/55/143 134/56/144
f 133/55/143 64/57/145 134/56/144
f 2/10/146 71/5/147 60/11/148
f 71/5/147 2/10/146 75/9/149
f 75/9/149 76/8/150 71/5/147
f 76/8/150 74/7/151 71/5/147
f 74/7/151 73/4/152 71/5/147
f 73/4/152 70/6/153 71/5/147
f 135/61/154 136/59/155 137/60/156
f 137/60/156 136/59/155 23/58/157
f 136/59/155 19/55/158 23/58/157
f 138/58/159 139/55/160 140/56/161
f 139/55/160 18/57/162 140/56/161
f 141/62/163 48/63/164 49/64/165
f 48/63/164 141/62/163 47/65/166
f 142/66/167 47/65/166 141/62/163
f 47/65/166 142/66/167 46/67/168
f 45/68/169 46/67/168 142/66/167
f 142/66/167 143/69/170 45/68/171
f 44/70/172 45/68/171 143/69/170
f 143/69/170 59/71/173 44/70/172
f 59/71/173 143/69/170 58/72/174
f 57/73/175 58/72/174 143/69/170
f 143/69/170 56/74/176 57/73/175
f 55/75/177 56/74/176 143/69/170
f 142/66/167 55/75/177 143/69/170
f 54/76/178 55/75/177 142/66/167
f 54/76/178 142/66/167 53/77/179
f 142/66/167 141/62/163 53/77/179
f 53/77/179 141/62/163 52/78/180
f 141/62/163 51/79/181 52/78/180
f 51/79/181 141/62/163 50/80/182
f 49/64/165 50/80/182 141/62/163
f 144/73/183 145/69/184 146/72/185
f 59/71/186 146/72/185 145/69/184
f 145/69/184 44/70/187 59/71/186
f 44/70/187 145/69/184 45/68/188
f 142/66/189 45/68/188 145/69/184
f 147/68/190 148/66/189 149/67/191
f 47/65/192 149/67/191 148/66/189
f 148/66/189 141/62/193 47/65/192
f 150/63/194 151/65/192 152/62/193
f 152/62/193 49/64/195 150/63/194
f 49/64/195 152/62/193 50/80/196
f 51/79/197 50/80/196 152/62/193
f 152/62/193 52/78/198 51/79/197
f 53/77/199 52/78/198 152/62/193
f 148/66/189 53/77/199 152/62/193
f 54/76/200 53/77/199 148/66/189
f 54/76/200 148/66/189 55/75/201
f 148/66/189 145/69/184 55/75/201
f 55/75/201 145/69/184 56/74/202
f 145/69/184 144/73/183 56/74/202
f 153/10/203 154/11/204 155/5/205
f 155/5/205 75/9/206 153/10/203
f 75/9/206 155/5/205 76/8/207
f 76/8/207 155/5/205 74/7/208
f 74/7/208 155/5/205 73/4/209
f 73/4/209 155/5/205 70/6/210
